<?xml version="1.0" encoding="UTF-8" standalone="no"?>
<!-- Created with Inkscape (http://www.inkscape.org/) -->

<svg
   width="130.40823mm"
   height="28.703976mm"
   viewBox="0 0 130.40823 28.703976"
   version="1.1"
   id="svg1"
   xml:space="preserve"
   inkscape:version="1.4.2 (f4327f4, 2025-05-13)"
   sodipodi:docname="multpost logo-text.svg"
   xmlns:inkscape="http://www.inkscape.org/namespaces/inkscape"
   xmlns:sodipodi="http://sodipodi.sourceforge.net/DTD/sodipodi-0.dtd"
   xmlns="http://www.w3.org/2000/svg"
   xmlns:svg="http://www.w3.org/2000/svg"><sodipodi:namedview
     id="namedview1"
     pagecolor="#ffffff"
     bordercolor="#000000"
     borderopacity="0.25"
     inkscape:showpageshadow="2"
     inkscape:pageopacity="0.0"
     inkscape:pagecheckerboard="0"
     inkscape:deskcolor="#d1d1d1"
     inkscape:document-units="mm"
     inkscape:zoom="0.68862935"
     inkscape:cx="392.0832"
     inkscape:cy="558.35552"
     inkscape:window-width="1920"
     inkscape:window-height="991"
     inkscape:window-x="-9"
     inkscape:window-y="-9"
     inkscape:window-maximized="1"
     inkscape:current-layer="layer1" /><defs
     id="defs1"><rect
       x="52.27776"
       y="29.0432"
       width="116.1728"
       height="21.7824"
       id="rect2" /></defs><g
     inkscape:label="Layer 1"
     inkscape:groupmode="layer"
     id="layer1"
     transform="translate(-1.1424571,-0.68151021)"><g
       style="fill:none"
       id="g1"
       transform="matrix(0.17947476,0,0,0.18524975,1.1424571,-0.13861706)"><path
         d="m 23.67,27.5459 c 0.1072,1.7315 0.2584,3.6849 0.431,5.9146 l 6.2307,80.5115 c 0.6964,8.999 1.0447,13.498 3.0619,16.8 1.7744,2.904 4.4227,5.172 7.5652,6.478 3.5726,1.485 8.072,1.137 17.0707,0.441 l 61.6645,-4.773 c 5.834,-0.451 9.777,-0.756 12.728,-1.465 -0.989,2.324 -2.517,4.394 -4.47,6.033 -2.964,2.486 -7.362,3.501 -16.156,5.529 l -60.267,13.902 c -8.7947,2.028 -13.192,3.043 -16.946,2.106 -3.302,-0.824 -6.2584,-2.672 -8.4455,-5.28 -2.4864,-2.964 -3.5008,-7.361 -5.5294,-16.156 L 2.45777,58.901 C 0.42913,50.1063 -0.585193,45.709 0.351525,41.9551 1.17549,38.653 3.02365,35.6966 5.63114,33.5095 8.59546,31.0231 12.9928,30.0088 21.7875,27.9801 Z"
         fill="#612bd3"
         id="path1" /><path
         d="M 48.2009,10.6828 109.866,5.91061 c 4.58,-0.35449 7.72,-0.59362 10.168,-0.58313 2.39,0.01025 3.681,0.26744 4.626,0.66021 2.18,0.90622 4.017,2.47924 5.247,4.49361 0.534,0.8731 0.987,2.1098 1.365,4.4697 0.387,2.4169 0.633,5.556 0.988,10.1366 l 6.231,80.5114 c 0.354,4.581 0.593,7.72 0.583,10.168 -0.011,2.39 -0.268,3.682 -0.661,4.626 -0.906,2.18 -2.479,4.017 -4.493,5.248 -0.873,0.533 -2.11,0.986 -4.47,1.364 -2.417,0.387 -5.556,0.634 -10.136,0.988 l -61.6652,4.773 c -4.5805,0.354 -7.7202,0.593 -10.168,0.583 -2.3899,-0.011 -3.6815,-0.268 -4.6263,-0.661 -2.1797,-0.906 -4.0166,-2.479 -5.2474,-4.493 -0.5335,-0.873 -0.9864,-2.11 -1.3642,-4.47 -0.387,-2.417 -0.6337,-5.556 -0.9882,-10.136 L 29.0239,33.077 c -0.3545,-4.5806 -0.5936,-7.7203 -0.5831,-10.168 0.0102,-2.3899 0.2674,-3.6815 0.6602,-4.6263 0.9062,-2.1798 2.4792,-4.0167 4.4936,-5.2475 0.8731,-0.5334 2.1098,-0.9863 4.4696,-1.3641 2.417,-0.387 5.5561,-0.6338 10.1367,-0.9883 z"
         fill="#ffffff"
         stroke="#000000"
         stroke-width="1.8"
         stroke-linejoin="round"
         id="path2" /><path
         d="m 90.423828,80.021484 v 16.306641 q 0,3.863285 -1.751953,5.794925 -1.751953,1.93164 -4.626953,1.93164 -2.785156,0 -4.53711,-1.93164 -1.707031,-1.93164 -1.707031,-5.794925 V 76.787109 q 0,-4.626953 -0.314453,-7.1875 -0.314453,-2.560547 -1.707031,-4.177734 -1.392578,-1.662109 -4.402344,-1.662109 -6.019531,0 -7.951172,4.132812 -1.886719,4.132813 -1.886719,11.859375 v 16.576172 q 0,3.818355 -1.751953,5.794925 -1.707031,1.93164 -4.537109,1.93164 -2.785156,0 -4.582031,-1.93164 -1.751953,-1.97657 -1.751953,-5.794925 V 61.244141 q 0,-3.458985 1.572265,-5.25586 1.617188,-1.796875 4.222656,-1.796875 2.515625,0 4.177735,1.707031 1.707031,1.66211 1.707031,4.626954 v 1.167968 Q 63.785156,57.875 67.423828,56.078125 71.0625,54.28125 75.509766,54.28125 q 4.626953,0 7.951171,1.841797 3.324219,1.841797 5.480469,5.570312 3.09961,-3.773437 6.648438,-5.570312 3.548828,-1.841797 7.861326,-1.841797 5.03125,0 8.66992,1.976562 3.63868,1.976563 5.43555,5.660157 1.57227,3.324218 1.57227,10.466797 v 23.943359 q 0,3.863285 -1.75196,5.794925 -1.75195,1.93164 -4.62695,1.93164 -2.78516,0 -4.58203,-1.93164 -1.75195,-1.97657 -1.75195,-5.794925 V 75.708984 q 0,-3.953125 -0.35938,-6.333984 -0.31445,-2.380859 -1.79687,-3.998047 -1.48243,-1.617187 -4.492192,-1.617187 -2.425781,0 -4.626953,1.4375 -2.15625,1.4375 -3.369141,3.863281 -1.347656,3.099609 -1.347656,10.960937 z"
         id="text2"
         style="font-weight:900;font-size:92px;font-family:'Arial Rounded MT Bold', Poppins, Nunito, sans-serif;dominant-baseline:middle;text-anchor:middle;fill:#000000"
         transform="rotate(-4,84,78)"
         aria-label="m" /></g><g
       inkscape:label="Layer 1"
       id="layer1-8"
       transform="matrix(1.0426162,0,0,1.1614442,9.9230526,9.110575)"><path
         d="m 22.334789,1.2179054 q 0.549838,0 0.549838,0.7813494 0,0.00965 0,0.1639869 -0.0096,0.1543406 -0.0096,0.2508035 0,0.5208996 0.308681,0.5208996 0.163987,0 0.511254,-0.4147904 0.520899,-0.5980699 1.311895,-0.9453363 0.790996,-0.3569127 1.620576,-0.3569127 1.610931,0 2.23794,1.1768472 0.241157,0.4340831 0.395497,0.4340831 0.10611,0 0.501607,-0.3858516 1.254018,-1.2250787 2.845656,-1.2250787 1.244371,0 2.035367,0.6848865 0.829581,0.7138254 0.829581,2.1414762 0,0.3086812 -0.01929,1.0417992 -0.01929,0.2508035 -0.01929,1.5144674 0,0.8102883 -0.0096,1.1382621 -0.0096,0.202572 -0.0096,0.2893886 0,0.6173625 0.385851,1.0803844 0.231511,0.2797424 0.279743,0.3762053 0.05788,0.086817 0.05788,0.2411572 0,1.2347247 -2.903533,1.2347247 -1.282956,0 -2.073952,-0.308681 -0.781349,-0.308681 -0.781349,-0.8102882 0,-0.1929258 0.04823,-0.2893887 0.05788,-0.1061092 0.376206,-0.5401922 0.299035,-0.3954978 0.299035,-2.6334369 0,-1.302249 -0.18328,-1.8135023 -0.212218,-0.6077162 -0.848873,-0.6077162 -0.318328,0 -0.569131,0.202572 -0.241158,0.1929258 -0.318328,0.4919608 -0.08682,0.3472664 -0.09646,1.8520875 0.02894,1.6205765 0.09646,1.9678429 0.07717,0.3472665 0.491961,0.964629 0.09646,0.1446943 0.09646,0.3665589 0,1.1479084 -2.999996,1.1479084 -1.803856,0 -2.430865,-0.270096 -0.501607,-0.212218 -0.501607,-0.7524106 0,-0.2411572 0.05788,-0.3376201 0.06752,-0.096463 0.434083,-0.4437293 0.212218,-0.2025721 0.270096,-0.3762053 0.06752,-0.1832795 0.09646,-0.6559476 0.06752,-1.0610918 0.06752,-2.1414762 0,-1.8906727 -0.964629,-1.8906727 -0.723472,0 -0.85852,0.8102883 -0.115755,0.7620568 -0.115755,2.1800613 0,1.0610918 0.03859,1.3890657 0.04823,0.3279738 0.241157,0.6848865 0.231511,0.4147904 0.231511,0.6752402 0,0.6270088 -0.877812,0.8681658 -0.954983,0.26045 -2.102891,0.26045 -1.485529,0 -2.180062,-0.231511 -0.694533,-0.241157 -0.694533,-0.7524105 0,-0.1929257 0.08682,-0.3279738 0.09646,-0.135048 0.424437,-0.4244367 0.434083,-0.3954978 0.501607,-1.0900307 0.106109,-1.1961398 0.106109,-2.4790962 0,-0.9163975 -0.09646,-1.2733102 -0.08682,-0.366559 -0.385851,-0.5884236 -0.289389,-0.2218647 -0.376206,-0.3376201 -0.07717,-0.1157555 -0.07717,-0.3183276 0,-0.6463014 1.01286,-1.0225066 2.440511,-0.8778123 3.655944,-0.8874586 z m 19.659136,0.4823144 v 5.2282887 q 0,1.6784543 1.109323,1.6784543 0.279743,0 0.549839,-0.1543406 0.270096,-0.1639869 0.376205,-0.3954979 0.212219,-0.4630219 0.212219,-2.0643058 0,-1.5819914 -0.10611,-2.1607688 -0.03859,-0.2411572 -0.135048,-0.3472664 -0.09646,-0.1157555 -0.366559,-0.2604498 -0.549838,-0.2893887 -0.549838,-0.733118 0,-0.5980699 0.945336,-0.8295808 1.79421,-0.4437293 3.540188,-0.4437293 0.974276,0 0.974276,1.0321529 0,0.1061092 -0.0096,0.434083 -0.01929,0.4630219 -0.02894,1.1286158 v 4.2540135 q 0,0.3279738 0.559485,0.5980699 0.472668,0.231511 0.472668,0.6752403 0,0.8681662 -2.054659,1.3408342 -1.205786,0.279742 -2.334402,0.279742 -0.463022,0 -0.636655,-0.106109 -0.163987,-0.106109 -0.192926,-0.41479 -0.04823,-0.5980702 -0.366559,-0.5980702 -0.115756,0 -0.212218,0.057878 -0.09646,0.048231 -0.588424,0.3858512 -0.974275,0.665594 -2.093245,0.665594 -1.852087,0 -2.614144,-1.0707378 -0.646301,-0.8971048 -0.646301,-3.0192884 0,-0.7909957 0.0096,-1.3504805 0,-0.3279738 0,-0.4437293 0,-0.8295808 -0.154341,-1.2154324 Q 37.508401,3.4558444 37.112903,3.2339798 36.736698,3.041054 36.630589,2.9252985 36.534126,2.8095431 36.534126,2.606971 q 0,-0.733118 1.109323,-0.9742752 1.890673,-0.4147904 3.781345,-0.4147904 0.569131,0 0.569131,0.4823144 z M 55.604838,3.108578 v 3.0964588 q 0,2.0546596 0.05788,2.3922797 0.06752,0.3376201 0.482315,0.5208996 0.356912,0.1543406 0.472668,0.2893887 0.125402,0.135048 0.125402,0.3858515 0,0.3183277 -0.231511,0.5787777 -0.221865,0.260449 -0.59807,0.366559 -0.694533,0.212218 -2.344048,0.212218 -1.861734,0 -2.614145,-0.279742 -0.347266,-0.125402 -0.569131,-0.385852 -0.221864,-0.270096 -0.221864,-0.5594847 0,-0.2315109 0.115755,-0.3569127 0.125402,-0.1254017 0.530546,-0.2990349 0.376205,-0.1639869 0.463022,-0.8971049 0.15434,-1.2540176 0.15434,-3.569127 0,-2.3536945 -0.135048,-3.0289347 -0.135048,-0.67524026 -0.67524,-1.00321409 -0.405144,-0.23151093 -0.559485,-0.434083 -0.144694,-0.21221836 -0.144694,-0.51125332 0,-0.47266817 0.453376,-0.81993459 0.453375,-0.3569127 1.446943,-0.6559476 0.665594,-0.2025721 1.726686,-0.3858516 1.061091,-0.1832795 1.543406,-0.1832795 0.762057,0 0.762057,0.9453363 0,0.3086813 -0.09646,1.41800453 Q 55.62413,1.671281 55.604838,3.108578 Z m 7.437292,0.5691311 v 3.2604457 q 0,0.5787773 0.279742,0.9453363 0.289389,0.366559 0.733118,0.366559 0.376205,0 0.993568,-0.3472664 0.144694,-0.086817 0.289388,-0.086817 0.231511,0 0.424437,0.2797424 0.192926,0.2797424 0.192926,0.6077162 0,0.5980699 -0.655948,1.1479084 -1.369773,1.1672013 -3.318323,1.1672013 -1.543406,0 -2.479097,-0.868166 -0.93569,-0.8778127 -0.93569,-2.3054634 V 3.3883204 q 0,-0.2218646 -0.05788,-0.2700961 -0.04823,-0.057878 -0.270096,-0.057878 H 57.24471 q -0.279743,0 -0.356913,-0.086817 -0.07717,-0.096463 -0.07717,-0.434083 v -0.424436 q 0.0096,-0.2893887 0.221864,-0.4244368 l 4.418001,-2.7781312 q 0.163987,-0.086817 0.405144,-0.086817 h 0.781349 q 0.241158,0 0.318328,0.1157555 0.08682,0.10610914 0.08682,0.43408297 v 1.30224902 q 0,0.28938867 0.08682,0.37620531 0.09646,0.086817 0.395498,0.086817 h 1.784564 q 0.356912,0 0.463021,0.135048 0.10611,0.1254018 0.10611,0.5498385 v 0.569131 q 0,0.4630219 -0.135048,0.6463014 -0.135049,0.1736332 -0.491961,0.1736332 h -1.745979 q -0.270096,0 -0.366559,0.096463 -0.09646,0.096463 -0.09646,0.366559 z m 8.778121,-1.8617338 v 5.6044939 q 0,0.665594 0.115755,0.9742752 0.125402,0.3086813 0.491961,0.5691311 0.299035,0.2122183 0.395498,0.366559 0.106109,0.1446943 0.106109,0.3762052 0,1.2443713 -3.154337,1.2443713 -1.697747,0 -2.691314,-0.270096 -0.33762,-0.09646 -0.549839,-0.33762 -0.202572,-0.241157 -0.202572,-0.5498387 0,-0.2604498 0.106109,-0.4051441 0.10611,-0.1446943 0.540193,-0.4630219 0.299034,-0.2218646 0.424436,-0.7234716 0.125402,-0.5016071 0.125402,-1.4951749 0,-0.3183275 -0.04823,-1.1864935 Q 67.440832,4.642338 67.421542,4.4976437 67.363662,4.1021458 66.88135,3.8899274 66.28328,3.6294776 66.28328,3.1182243 q 0,-0.6077162 0.781349,-0.9067511 1.080384,-0.4147905 2.315109,-0.7041791 1.234725,-0.2893887 1.909966,-0.2893887 0.530546,0 0.530547,0.5980699 z m -1.909966,-4.2250746 q 0.839228,0 1.331188,0.3183275 0.491961,0.3086813 0.491961,0.8392272 0,0.74276424 -0.742764,1.17684725 -1.176848,0.68488652 -2.845656,0.68488652 -0.704179,0 -1.118969,-0.27009609 -0.559485,-0.34726641 -0.559485,-0.96462891 0,-0.82958087 1.186494,-1.30224907 1.205786,-0.4823144 2.257231,-0.4823144 z m 8.315101,3.6077121 q 0.588423,0 0.733118,0.1061092 0.144694,0.096463 0.144694,0.501607 0,0.3569127 0.231511,0.3569127 0.09646,0 0.646301,-0.366559 0.414791,-0.2797424 1.051446,-0.4630219 0.646301,-0.1929257 1.167201,-0.1929257 1.225078,0 2.189707,0.8488734 0.733118,0.6463014 1.138262,1.6302229 0.424437,1.0321529 0.424437,2.170415 0,2.4308648 -1.639869,4.0032099 -1.263664,1.2250787 -2.874594,1.2250787 -0.819935,0 -1.688101,-0.385852 -0.173633,-0.07717 -0.279742,-0.07717 -0.289389,0 -0.289389,0.578778 0,0.762056 0.511253,1.099676 0.472669,0.318328 0.559485,0.424437 0.09646,0.115756 0.09646,0.376205 0,0.578778 -0.646301,0.887459 -0.646302,0.318328 -1.823149,0.318328 -2.093245,0 -3.66559,-0.839228 -0.800642,-0.424436 -0.800642,-1.051445 0,-0.289389 0.115756,-0.443729 0.125402,-0.144695 0.472668,-0.308682 0.501607,-0.231511 0.607716,-0.839227 Q 74.723783,10.150369 74.78166,7.2661286 74.714136,4.8931415 74.608027,4.6037528 74.569442,4.5072899 74.492272,4.4783511 74.424748,4.4494122 74.019604,4.3722419 73.710922,4.3143642 73.517996,4.0924995 73.325071,3.8609886 73.325071,3.542661 q 0,-0.3858515 0.270096,-0.6752402 0.270096,-0.299035 0.877812,-0.5787773 2.363341,-1.0707381 3.752407,-1.0900307 z m 0.954982,3.6462973 -0.144694,2.6527295 q -0.0096,0.1639869 -0.0096,0.3183275 0,0.299035 0.260449,0.4823144 0.26045,0.1832795 0.694533,0.1832795 1.331188,0 1.331188,-2.1897076 0,-1.4180045 -0.559485,-1.9967818 -0.347266,-0.3569127 -0.829581,-0.3569127 -0.684886,0 -0.742764,0.9067512 z m 13.437281,-3.704175 q 1.765271,0 3.096459,0.9163974 0.954982,0.6559477 1.53376,1.7073932 0.598069,1.0996769 0.598069,2.2958168 0,2.0932447 -1.919611,3.5594806 -1.832795,1.3987119 -4.196136,1.3987119 -2.305463,0 -3.733114,-1.3118953 -1.389065,-1.2733101 -1.389065,-3.3183234 0,-2.2765242 1.697747,-3.7234676 1.774917,-1.5241136 4.311891,-1.5241136 z m -0.771703,2.2282927 q -0.424437,0 -0.684887,0.3183276 -0.250803,0.3086812 -0.250803,0.8295808 0,0.5787774 0.212218,1.5819914 0.221865,0.9935678 0.5209,1.7652709 0.299035,0.7909957 0.974275,0.7909957 0.85852,0 0.85852,-1.0900306 0,-0.8102883 -0.221865,-1.8424412 -0.212218,-1.032153 -0.5209,-1.6784543 Q 92.415077,3.3883204 91.845946,3.3690278 Z M 102.39899,1.1503814 q 0.48231,0 1.57234,0.2122183 0.22187,0.038585 0.36656,0.038585 0.16399,0 0.63666,-0.1736332 0.22186,-0.086817 0.3762,-0.086817 0.44373,0 0.89711,0.569131 0.36655,0.4533756 0.59807,0.9935678 0.23151,0.5401922 0.23151,0.93569 0,0.3858516 -0.2701,0.6463014 -0.2701,0.2508035 -0.67524,0.2508035 -0.33762,0 -0.60772,-0.1639869 -0.26045,-0.1639869 -0.84887,-0.7234717 -0.61736,-0.5980699 -1.02251,-0.5980699 -0.27009,0 -0.47266,0.2025721 -0.19293,0.1929258 -0.19293,0.4630218 0,0.4726682 0.90675,0.8874586 1.63022,0.733118 2.49839,1.601284 0.73312,0.733118 0.73312,1.7942098 0,1.3408342 -1.17685,2.237939 -1.01286,0.781349 -2.4791,0.781349 -0.3762,0 -1.36977,-0.125402 -0.93569,-0.106109 -1.05144,-0.106109 -0.12541,0 -0.28939,0.02894 -0.27974,0.03858 -0.40515,0.03858 -0.453372,0 -0.713822,-0.231511 Q 99.24465,10.266125 98.90703,9.5040677 98.56941,8.7323646 98.56941,8.1825261 q 0,-0.8874586 0.694533,-0.8874586 0.270096,0 0.49196,0.1832795 0.231511,0.1736332 0.954987,0.9453363 0.39549,0.4244367 0.65594,0.5884236 0.26045,0.1543407 0.55949,0.1543407 0.31833,0 0.51125,-0.163987 0.19293,-0.1736332 0.19293,-0.4533755 0,-0.434083 -0.74277,-0.7909957 -1.55305,-0.7620569 -2.247582,-1.5723452 -0.684887,-0.8102882 -0.684887,-1.87138 0,-1.1479084 0.70418,-1.9774893 1.003209,-1.1864935 2.739549,-1.1864935 z m 11.34403,2.5273277 v 3.2604457 q 0,0.5787773 0.27975,0.9453363 0.28938,0.366559 0.73311,0.366559 0.37621,0 0.99357,-0.3472664 0.1447,-0.086817 0.28939,-0.086817 0.23151,0 0.42444,0.2797424 0.19292,0.2797424 0.19292,0.6077162 0,0.5980699 -0.65595,1.1479084 -1.36977,1.1672013 -3.31832,1.1672013 -1.54341,0 -2.4791,-0.868166 -0.93569,-0.8778127 -0.93569,-2.3054634 V 3.3883204 q 0,-0.2218646 -0.0579,-0.2700961 -0.0482,-0.057878 -0.2701,-0.057878 h -0.99357 q -0.27974,0 -0.35691,-0.086817 -0.0772,-0.096463 -0.0772,-0.434083 v -0.424436 q 0.01,-0.2893887 0.22186,-0.4244368 l 4.41801,-2.7781312 q 0.16398,-0.086817 0.40514,-0.086817 h 0.78135 q 0.24116,0 0.31833,0.1157555 0.0868,0.10610914 0.0868,0.43408297 v 1.30224902 q 0,0.28938867 0.0868,0.37620531 0.0965,0.086817 0.3955,0.086817 h 1.78456 q 0.35691,0 0.46302,0.135048 0.10611,0.1254018 0.10611,0.5498385 v 0.569131 q 0,0.4630219 -0.13505,0.6463014 -0.13504,0.1736332 -0.49196,0.1736332 h -1.74598 q -0.27009,0 -0.36655,0.096463 -0.0965,0.096463 -0.0965,0.366559 z"
         id="text1"
         style="font-size:19.7556px;font-family:'Cooper Black';-inkscape-font-specification:'Cooper Black, Normal';stroke-width:0.264583"
         aria-label="multipost" /><text
         xml:space="preserve"
         transform="scale(0.26458333)"
         id="text2-8"
         style="text-align:start;writing-mode:lr-tb;direction:ltr;white-space:pre;shape-inside:url(#rect2);fill:#000000" /></g></g></svg>
