<?xml version="1.0" encoding="UTF-8" standalone="no"?>
<!-- Created with Inkscape (http://www.inkscape.org/) -->

<svg
   width="143.53415mm"
   height="31.695641mm"
   viewBox="0 0 129.98635 5.6861932"
   version="1.1"
   id="svg1"
   xml:space="preserve"
   inkscape:version="1.4.2 (f4327f4, 2025-05-13)"
   sodipodi:docname="multpost logo-text black.svg"
   xmlns:inkscape="http://www.inkscape.org/namespaces/inkscape"
   xmlns:sodipodi="http://sodipodi.sourceforge.net/DTD/sodipodi-0.dtd"
   xmlns="http://www.w3.org/2000/svg"
   xmlns:svg="http://www.w3.org/2000/svg"><sodipodi:namedview
     id="namedview1"
     pagecolor="#ffffff"
     bordercolor="#000000"
     borderopacity="0.25"
     inkscape:showpageshadow="2"
     inkscape:pageopacity="0.0"
     inkscape:pagecheckerboard="0"
     inkscape:deskcolor="#d1d1d1"
     inkscape:document-units="mm"
     inkscape:zoom="0.68862935"
     inkscape:cx="347.06624"
     inkscape:cy="372.47904"
     inkscape:window-width="1920"
     inkscape:window-height="991"
     inkscape:window-x="-9"
     inkscape:window-y="-9"
     inkscape:window-maximized="1"
     inkscape:current-layer="layer1" /><defs
     id="defs1"><rect
       x="52.27776"
       y="29.0432"
       width="116.1728"
       height="21.7824"
       id="rect2" /><rect
       x="52.27776"
       y="29.0432"
       width="116.1728"
       height="21.7824"
       id="rect2-8" /></defs><g
     inkscape:label="Layer 1"
     inkscape:groupmode="layer"
     id="layer1"
     transform="translate(-11.928972,-45.079154)"><g
       style="fill:none"
       id="g1"
       transform="matrix(0.17947476,0,0,0.18524975,12.624876,32.916833)"><path
         d="m 23.67,27.5459 c 0.1072,1.7315 0.2584,3.6849 0.431,5.9146 l 6.2307,80.5115 c 0.6964,8.999 1.0447,13.498 3.0619,16.8 1.7744,2.904 4.4227,5.172 7.5652,6.478 3.5726,1.485 8.072,1.137 17.0707,0.441 l 61.6645,-4.773 c 5.834,-0.451 9.777,-0.756 12.728,-1.465 -0.989,2.324 -2.517,4.394 -4.47,6.033 -2.964,2.486 -7.362,3.501 -16.156,5.529 l -60.267,13.902 c -8.7947,2.028 -13.192,3.043 -16.946,2.106 -3.302,-0.824 -6.2584,-2.672 -8.4455,-5.28 -2.4864,-2.964 -3.5008,-7.361 -5.5294,-16.156 L 2.45777,58.901 C 0.42913,50.1063 -0.585193,45.709 0.351525,41.9551 1.17549,38.653 3.02365,35.6966 5.63114,33.5095 8.59546,31.0231 12.9928,30.0088 21.7875,27.9801 Z"
         fill="#612bd3"
         id="path1" /><path
         d="M 48.2009,10.6828 109.866,5.91061 c 4.58,-0.35449 7.72,-0.59362 10.168,-0.58313 2.39,0.01025 3.681,0.26744 4.626,0.66021 2.18,0.90622 4.017,2.47924 5.247,4.49361 0.534,0.8731 0.987,2.1098 1.365,4.4697 0.387,2.4169 0.633,5.556 0.988,10.1366 l 6.231,80.5114 c 0.354,4.581 0.593,7.72 0.583,10.168 -0.011,2.39 -0.268,3.682 -0.661,4.626 -0.906,2.18 -2.479,4.017 -4.493,5.248 -0.873,0.533 -2.11,0.986 -4.47,1.364 -2.417,0.387 -5.556,0.634 -10.136,0.988 l -61.6652,4.773 c -4.5805,0.354 -7.7202,0.593 -10.168,0.583 -2.3899,-0.011 -3.6815,-0.268 -4.6263,-0.661 -2.1797,-0.906 -4.0166,-2.479 -5.2474,-4.493 -0.5335,-0.873 -0.9864,-2.11 -1.3642,-4.47 -0.387,-2.417 -0.6337,-5.556 -0.9882,-10.136 L 29.0239,33.077 c -0.3545,-4.5806 -0.5936,-7.7203 -0.5831,-10.168 0.0102,-2.3899 0.2674,-3.6815 0.6602,-4.6263 0.9062,-2.1798 2.4792,-4.0167 4.4936,-5.2475 0.8731,-0.5334 2.1098,-0.9863 4.4696,-1.3641 2.417,-0.387 5.5561,-0.6338 10.1367,-0.9883 z"
         fill="#ffffff"
         stroke="#000000"
         stroke-width="1.8"
         stroke-linejoin="round"
         id="path2" /><path
         d="m 90.423828,80.021484 v 16.306641 q 0,3.863285 -1.751953,5.794925 -1.751953,1.93164 -4.626953,1.93164 -2.785156,0 -4.53711,-1.93164 -1.707031,-1.93164 -1.707031,-5.794925 V 76.787109 q 0,-4.626953 -0.314453,-7.1875 -0.314453,-2.560547 -1.707031,-4.177734 -1.392578,-1.662109 -4.402344,-1.662109 -6.019531,0 -7.951172,4.132812 -1.886719,4.132813 -1.886719,11.859375 v 16.576172 q 0,3.818355 -1.751953,5.794925 -1.707031,1.93164 -4.537109,1.93164 -2.785156,0 -4.582031,-1.93164 -1.751953,-1.97657 -1.751953,-5.794925 V 61.244141 q 0,-3.458985 1.572265,-5.25586 1.617188,-1.796875 4.222656,-1.796875 2.515625,0 4.177735,1.707031 1.707031,1.66211 1.707031,4.626954 v 1.167968 Q 63.785156,57.875 67.423828,56.078125 71.0625,54.28125 75.509766,54.28125 q 4.626953,0 7.951171,1.841797 3.324219,1.841797 5.480469,5.570312 3.09961,-3.773437 6.648438,-5.570312 3.548828,-1.841797 7.861326,-1.841797 5.03125,0 8.66992,1.976562 3.63868,1.976563 5.43555,5.660157 1.57227,3.324218 1.57227,10.466797 v 23.943359 q 0,3.863285 -1.75196,5.794925 -1.75195,1.93164 -4.62695,1.93164 -2.78516,0 -4.58203,-1.93164 -1.75195,-1.97657 -1.75195,-5.794925 V 75.708984 q 0,-3.953125 -0.35938,-6.333984 -0.31445,-2.380859 -1.79687,-3.998047 -1.48243,-1.617187 -4.492192,-1.617187 -2.425781,0 -4.626953,1.4375 -2.15625,1.4375 -3.369141,3.863281 -1.347656,3.099609 -1.347656,10.960937 z"
         id="text2"
         style="font-weight:900;font-size:92px;font-family:'Arial Rounded MT Bold', Poppins, Nunito, sans-serif;dominant-baseline:middle;text-anchor:middle;fill:#000000"
         transform="rotate(-4,84,78)"
         aria-label="m" /></g><path
       d="m 42.050294,41.75354 c 0.343443,0 0.515164,0.306584 0.515164,0.919753 v 0.193035 c -0.0061,0.121119 -0.0091,0.219529 -0.0091,0.295228 0,0.408779 0.0964,0.613169 0.289215,0.613169 0.10243,0 0.262101,-0.162755 0.479012,-0.488264 0.325367,-0.469339 0.735089,-0.840268 1.229164,-1.112787 0.494076,-0.280089 1.000202,-0.420134 1.518379,-0.420134 1.006227,0 1.705164,0.461769 2.096809,1.385307 0.150633,0.340649 0.274152,0.510973 0.370557,0.510973 0.06628,0 0.222938,-0.151399 0.469974,-0.454198 0.783291,-0.961388 1.672024,-1.442082 2.666201,-1.442082 0.777265,0 1.412936,0.268734 1.907012,0.806203 0.518177,0.560179 0.777265,1.400448 0.777265,2.520805 0,0.24224 -0.006,0.651019 -0.01807,1.226338 -0.01205,0.196819 -0.01808,0.791063 -0.01808,1.782731 0,0.635879 -0.003,1.082508 -0.0091,1.339887 -0.0061,0.158969 -0.0091,0.272519 -0.0091,0.34065 0,0.484479 0.120506,0.908398 0.361519,1.271757 0.144607,0.219529 0.231974,0.367144 0.262101,0.442845 0.03615,0.06813 0.05423,0.162753 0.05423,0.283874 0,0.968957 -0.90681,1.453436 -2.720429,1.453436 -0.801366,0 -1.449087,-0.12112 -1.943163,-0.363359 -0.488051,-0.242239 -0.732076,-0.560179 -0.732076,-0.953818 0,-0.1514 0.01506,-0.26495 0.04519,-0.340649 0.03615,-0.08327 0.15364,-0.295229 0.352481,-0.635878 0.186784,-0.310369 0.280176,-1.343672 0.280176,-3.099909 0,-1.021949 -0.05724,-1.733527 -0.17172,-2.134736 -0.132557,-0.476909 -0.397671,-0.715363 -0.795342,-0.715363 -0.198835,0 -0.376582,0.07948 -0.53324,0.238454 -0.150633,0.1514 -0.25005,0.344434 -0.298253,0.579103 -0.05423,0.27252 -0.08435,0.999239 -0.09038,2.180156 0.01807,1.271757 0.0482,2.043896 0.09038,2.316415 0.0482,0.27252 0.201845,0.65102 0.460936,1.135499 0.06025,0.113549 0.09038,0.257379 0.09038,0.431489 0,0.900828 -0.936936,1.351242 -2.810809,1.351242 -1.126733,0 -1.885923,-0.10598 -2.277568,-0.31794 -0.313317,-0.166539 -0.469975,-0.461769 -0.469975,-0.885688 0,-0.189249 0.01808,-0.321724 0.05423,-0.397424 0.04217,-0.0757 0.177743,-0.249813 0.406708,-0.52233 0.132557,-0.158969 0.216912,-0.306584 0.253063,-0.442843 0.04217,-0.143829 0.0723,-0.401209 0.09039,-0.772138 0.04217,-0.832699 0.06326,-1.672967 0.06326,-2.520806 0,-1.483717 -0.301265,-2.225575 -0.903796,-2.225575 -0.451899,0 -0.720025,0.317939 -0.804379,0.953818 -0.0723,0.598029 -0.108456,1.453437 -0.108456,2.566225 0,0.832698 0.01205,1.377737 0.03615,1.635116 0.03013,0.25738 0.105443,0.526114 0.22595,0.806203 0.144607,0.32551 0.216911,0.59046 0.216911,0.79485 0,0.492049 -0.274152,0.832699 -0.822456,1.021948 -0.596505,0.204389 -1.253264,0.306584 -1.970277,0.306584 -0.927898,0 -1.608758,-0.09084 -2.042581,-0.272519 -0.433823,-0.18925 -0.650734,-0.48448 -0.650734,-0.885689 0,-0.151399 0.02711,-0.280089 0.08134,-0.386069 0.06025,-0.10598 0.19281,-0.27252 0.39767,-0.499619 0.271139,-0.310369 0.427797,-0.738074 0.469975,-1.283113 0.06628,-0.938678 0.09942,-1.911421 0.09942,-2.918229 0,-0.719149 -0.03013,-1.218768 -0.09038,-1.498857 -0.05423,-0.287659 -0.174733,-0.518544 -0.361519,-0.692654 -0.180759,-0.174109 -0.298253,-0.306584 -0.352481,-0.397424 -0.0482,-0.09084 -0.0723,-0.215745 -0.0723,-0.374714 0,-0.507189 0.316329,-0.908398 0.948987,-1.203627 1.524404,-0.688869 2.666201,-1.037089 3.42539,-1.044658 z m 18.419381,0.567748 v 6.154398 c 0,1.317177 0.346455,1.975766 1.039366,1.975766 0.174735,0 0.346456,-0.06056 0.515165,-0.181679 0.168709,-0.12869 0.286202,-0.283875 0.35248,-0.465554 0.132557,-0.36336 0.198836,-1.173349 0.198836,-2.429966 0,-1.241477 -0.03314,-2.089316 -0.09942,-2.543515 -0.0241,-0.18925 -0.06628,-0.325509 -0.126531,-0.408778 -0.06025,-0.09084 -0.174734,-0.193035 -0.343443,-0.306586 -0.343443,-0.227099 -0.515165,-0.514759 -0.515165,-0.862978 0,-0.469339 0.29524,-0.794848 0.885721,-0.976527 1.120708,-0.348219 2.226353,-0.522329 3.316935,-0.522329 0.608557,0 0.912835,0.404994 0.912835,1.214982 0,0.08327 -0.003,0.253594 -0.0091,0.510974 -0.01205,0.363359 -0.02109,0.806203 -0.02711,1.328532 v 5.007546 c 0,0.257379 0.174734,0.492049 0.524202,0.704008 0.29524,0.18168 0.44286,0.446629 0.44286,0.794848 0,0.681299 -0.641696,1.207413 -1.925087,1.578342 -0.753164,0.219529 -1.482227,0.329294 -2.187188,0.329294 -0.289215,0 -0.488051,-0.04163 -0.596506,-0.124905 -0.102431,-0.08327 -0.162684,-0.246023 -0.18076,-0.488264 -0.03013,-0.469339 -0.144607,-0.704008 -0.343442,-0.704008 -0.0723,0 -0.138583,0.02271 -0.198836,0.06813 -0.06025,0.03785 -0.244019,0.189246 -0.551316,0.454199 -0.608557,0.522329 -1.262303,0.783493 -1.961239,0.783493 -1.15686,0 -1.97329,-0.420134 -2.449289,-1.260402 -0.403697,-0.704009 -0.605545,-1.888712 -0.605545,-3.554109 0,-0.620739 0.003,-1.150637 0.0091,-1.589696 v -0.522329 c 0,-0.651019 -0.0482,-1.127928 -0.144608,-1.430727 -0.09038,-0.310369 -0.259089,-0.552609 -0.506126,-0.726719 -0.234987,-0.1514 -0.38562,-0.27252 -0.451898,-0.363359 -0.06025,-0.09084 -0.09038,-0.215745 -0.09038,-0.374714 0,-0.575319 0.346456,-0.957603 1.039367,-1.146853 1.180961,-0.325509 2.361923,-0.488264 3.542884,-0.488264 0.355493,0 0.533239,0.189249 0.533239,0.567748 z m 12.752573,1.657827 v 3.644948 c 0,1.612407 0.01808,2.551085 0.05423,2.816034 0.04217,0.26495 0.192806,0.46934 0.451898,0.61317 0.222937,0.121119 0.370557,0.234669 0.442861,0.340649 0.07833,0.105979 0.117493,0.257379 0.117493,0.454199 0,0.249809 -0.0723,0.476909 -0.216911,0.681298 -0.138582,0.204389 -0.325367,0.348219 -0.560354,0.431489 -0.433823,0.16654 -1.165898,0.24981 -2.196226,0.24981 -1.162886,0 -1.979316,-0.109765 -2.44929,-0.329295 -0.216911,-0.09841 -0.394658,-0.249809 -0.53324,-0.454198 -0.138583,-0.211961 -0.207874,-0.43149 -0.207874,-0.658589 0,-0.18168 0.03615,-0.321725 0.108456,-0.420135 0.07833,-0.09841 0.244026,-0.215744 0.497089,-0.352004 0.234987,-0.128689 0.379594,-0.480693 0.433822,-1.056012 0.09641,-0.984099 0.144608,-2.384546 0.144608,-4.201342 0,-1.847077 -0.04218,-3.035564 -0.126532,-3.565463 -0.08435,-0.529899 -0.295237,-0.923538 -0.632655,-1.180918 -0.253063,-0.181679 -0.427797,-0.352004 -0.524202,-0.510974 -0.09038,-0.166539 -0.13557,-0.367144 -0.13557,-0.601814 0,-0.370929 0.141595,-0.692654 0.424785,-0.965173 0.283189,-0.280089 0.735088,-0.537469 1.355696,-0.772138 0.415746,-0.15897 0.955011,-0.31037 1.617796,-0.454199 0.662784,-0.14383 1.144809,-0.215745 1.446075,-0.215745 0.476,0 0.714,0.370929 0.714,1.112788 0,0.242239 -0.03013,0.798633 -0.09038,1.669181 -0.07833,1.355027 -0.123519,2.596505 -0.13557,3.724433 z m 6.968276,0.669944 v 3.837982 c 0,0.454199 0.08737,0.825128 0.262101,1.112787 0.180759,0.287661 0.409721,0.431491 0.686885,0.431491 0.234988,0 0.545292,-0.13626 0.930912,-0.40878 0.09038,-0.06813 0.180759,-0.102193 0.271139,-0.102193 0.144607,0 0.277164,0.109765 0.39767,0.329295 0.120507,0.219529 0.18076,0.457984 0.18076,0.715364 0,0.469339 -0.204861,0.919753 -0.614582,1.351242 -0.855595,0.915967 -1.891948,1.373951 -3.109061,1.373951 -0.96405,0 -1.738303,-0.340649 -2.322759,-1.021948 -0.584455,-0.688868 -0.876682,-1.593481 -0.876682,-2.713839 v -5.246 c 0,-0.174109 -0.01808,-0.280088 -0.05423,-0.317939 -0.03013,-0.04542 -0.114481,-0.06813 -0.253063,-0.06813 h -0.930911 c -0.174734,0 -0.286202,-0.03406 -0.334405,-0.102192 -0.0482,-0.0757 -0.0723,-0.246028 -0.0723,-0.510975 v -0.499618 c 0.0061,-0.227099 0.07536,-0.393639 0.207874,-0.499619 l 4.13939,-3.270234 c 0.10243,-0.06813 0.228961,-0.102193 0.379594,-0.102193 h 0.732075 c 0.150633,0 0.250051,0.04542 0.298254,0.136259 0.05423,0.08327 0.08134,0.253595 0.08134,0.510975 v 1.532921 c 0,0.227099 0.02711,0.374714 0.08134,0.442844 0.06025,0.06813 0.183773,0.102193 0.370558,0.102193 h 1.672023 c 0.222937,0 0.367545,0.05299 0.433823,0.15897 0.06628,0.09841 0.09942,0.314155 0.09942,0.647234 v 0.669944 c 0,0.363359 -0.04218,0.616953 -0.126532,0.760783 -0.08435,0.13626 -0.237999,0.20439 -0.460936,0.20439 h -1.635872 c -0.168709,0 -0.28319,0.03785 -0.343443,0.113554 -0.06025,0.0757 -0.09038,0.219532 -0.09038,0.431489 z m 8.224551,-2.191511 v 6.597242 c 0,0.522329 0.03615,0.904614 0.108456,1.146853 0.07833,0.242239 0.231974,0.465554 0.460936,0.669943 0.186785,0.166539 0.310304,0.310369 0.370557,0.431489 0.06628,0.11355 0.09942,0.261165 0.09942,0.442844 0,0.976529 -0.985138,1.464793 -2.955415,1.464793 -1.060455,0 -1.900987,-0.10598 -2.521594,-0.31794 -0.210885,-0.0757 -0.382607,-0.208177 -0.515164,-0.397424 -0.126531,-0.189249 -0.189797,-0.404993 -0.189797,-0.647233 0,-0.20439 0.03314,-0.36336 0.09942,-0.47691 0.06628,-0.113549 0.234989,-0.295229 0.506126,-0.545038 0.186784,-0.17411 0.319341,-0.457985 0.397671,-0.851624 0.07833,-0.393639 0.117493,-0.980313 0.117493,-1.760022 0,-0.249809 -0.01506,-0.715363 -0.04519,-1.396662 -0.0241,-0.688868 -0.04218,-1.090077 -0.05423,-1.203627 -0.03615,-0.310369 -0.204862,-0.548824 -0.506127,-0.715364 -0.373569,-0.204389 -0.560354,-0.507189 -0.560354,-0.908398 0,-0.476909 0.244025,-0.832698 0.732075,-1.067368 0.674835,-0.325509 1.397873,-0.601813 2.169113,-0.828913 0.77124,-0.227099 1.367746,-0.340649 1.789518,-0.340649 0.331392,0 0.497088,0.234669 0.497088,0.704008 z m -1.789518,-4.97348 c 0.524202,0 0.939949,0.124905 1.24724,0.374714 0.307291,0.24224 0.460936,0.571534 0.460936,0.987883 0,0.582889 -0.231974,1.044658 -0.695923,1.385308 -0.735088,0.537469 -1.623822,0.806203 -2.666201,0.806203 -0.439848,0 -0.789316,-0.10598 -1.048405,-0.317939 -0.349468,-0.27252 -0.524202,-0.651019 -0.524202,-1.135498 0,-0.651019 0.370557,-1.161993 1.111671,-1.532922 0.753163,-0.378499 1.458125,-0.567749 2.114884,-0.567749 z m 7.790726,4.246761 c 0.36755,0 0.59651,0.04163 0.68689,0.124905 0.0904,0.0757 0.13557,0.272522 0.13557,0.590459 0,0.28009 0.0723,0.420135 0.21691,0.420135 0.0603,0 0.2621,-0.14383 0.60554,-0.431489 0.25909,-0.219531 0.58747,-0.401211 0.98514,-0.54504 0.4037,-0.151399 0.76823,-0.227099 1.0936,-0.227099 0.76521,0 1.449083,0.333079 2.051617,0.999237 0.45792,0.507189 0.81341,1.146853 1.06648,1.918991 0.26511,0.809989 0.39767,1.661612 0.39767,2.554871 0,1.907637 -0.51215,3.478409 -1.53646,4.712316 -0.789314,0.961387 -1.687087,1.442081 -2.693317,1.442081 -0.51215,0 -1.03936,-0.1514 -1.58164,-0.454199 -0.10846,-0.06055 -0.19582,-0.09083 -0.2621,-0.09083 -0.18076,0 -0.27114,0.227099 -0.27114,0.681298 0,0.598029 0.15967,1.029518 0.47901,1.294467 0.29524,0.249811 0.46998,0.416351 0.52421,0.49962 0.0603,0.09084 0.0904,0.238455 0.0904,0.442844 0,0.454199 -0.20185,0.802419 -0.60554,1.044658 -0.4037,0.249809 -0.97309,0.374714 -1.708179,0.374714 -1.307493,0 -2.452303,-0.329294 -3.434429,-0.987883 -0.500101,-0.333079 -0.750152,-0.745643 -0.750152,-1.237692 0,-0.2271 0.03615,-0.40121 0.108456,-0.522329 0.07833,-0.11355 0.22595,-0.23467 0.442861,-0.36336 0.313316,-0.181679 0.503113,-0.510973 0.569392,-0.987882 0.0723,-0.476909 0.126531,-1.847077 0.162683,-4.110503 -0.04217,-1.862216 -0.0964,-2.906874 -0.162683,-3.133973 -0.0241,-0.0757 -0.06025,-0.124908 -0.108456,-0.147615 -0.04217,-0.02271 -0.189793,-0.06434 -0.44286,-0.124905 -0.19281,-0.04542 -0.349468,-0.155185 -0.469974,-0.329294 -0.120507,-0.18168 -0.18076,-0.397424 -0.18076,-0.647233 0,-0.3028 0.08435,-0.56775 0.253063,-0.794849 0.168709,-0.23467 0.44286,-0.46177 0.822455,-0.681299 1.476202,-0.840268 2.648125,-1.267972 3.515773,-1.283113 z m 0.89476,4.292182 -0.13557,3.122619 c -0.006,0.12869 -0.009,0.253595 -0.009,0.374714 0,0.23467 0.0813,0.42392 0.24403,0.567749 0.16268,0.14383 0.37959,0.215745 0.65073,0.215745 0.83149,0 1.24724,-0.859193 1.24724,-2.57758 0,-1.112788 -0.17473,-1.896281 -0.5242,-2.35048 -0.21692,-0.28009 -0.476,-0.420135 -0.77727,-0.420135 -0.42779,0 -0.65977,0.355789 -0.69592,1.067368 z M 107.90094,41.6627 c 1.10263,0 2.06969,0.359574 2.90119,1.078723 0.5965,0.514759 1.07551,1.184702 1.43703,2.009831 0.37357,0.862978 0.56035,1.763806 0.56035,2.702484 0,1.642687 -0.59952,3.039349 -1.79855,4.189987 -1.14481,1.097647 -2.45531,1.646471 -3.93152,1.646471 -1.44005,0 -2.60594,-0.514759 -3.49769,-1.544277 -0.86765,-0.999237 -1.30147,-2.301275 -1.30147,-3.906112 0,-1.786516 0.53023,-3.247523 1.59069,-4.383021 1.10865,-1.196057 2.45531,-1.794086 4.03997,-1.794086 z m -0.72304,2.623 c -0.26511,0 -0.47901,0.124905 -0.64169,0.374714 -0.15667,0.242239 -0.235,0.567748 -0.235,0.976527 0,0.454199 0.0663,1.074938 0.19884,1.862217 0.13858,0.779708 0.30126,1.472362 0.48805,2.077961 0.18678,0.620739 0.49106,0.931108 0.91284,0.931108 0.53625,0 0.80438,-0.427704 0.80438,-1.283112 0,-0.635879 -0.0693,-1.358813 -0.20788,-2.168801 -0.13255,-0.809988 -0.29524,-1.468577 -0.48805,-1.975766 -0.19883,-0.514759 -0.476,-0.779709 -0.83149,-0.794848 z m 11.86685,-2.623 c 1.10263,0 2.06969,0.359574 2.90118,1.078723 0.59651,0.514759 1.07553,1.184702 1.43705,2.009831 0.37357,0.862978 0.56035,1.763806 0.56035,2.702484 0,1.642687 -0.59952,3.039349 -1.79856,4.189987 -1.14481,1.097647 -2.45532,1.646471 -3.93151,1.646471 -1.44005,0 -2.60595,-0.514759 -3.4977,-1.544277 -0.86765,-0.999237 -1.30147,-2.301275 -1.30147,-3.906112 0,-1.786516 0.53023,-3.247523 1.59068,-4.383021 1.10866,-1.196057 2.45532,-1.794086 4.03998,-1.794086 z m -0.72304,2.623 c -0.26511,0 -0.47901,0.124905 -0.6417,0.374714 -0.15665,0.242239 -0.23498,0.567748 -0.23498,0.976527 0,0.454199 0.0663,1.074938 0.19883,1.862217 0.13859,0.779708 0.30127,1.472362 0.48805,2.077961 0.18679,0.620739 0.49107,0.931108 0.91284,0.931108 0.53625,0 0.80437,-0.427704 0.80437,-1.283112 0,-0.635879 -0.0693,-1.358813 -0.20787,-2.168801 -0.13255,-0.809988 -0.29523,-1.468577 -0.48804,-1.975766 -0.19884,-0.514759 -0.47601,-0.779709 -0.8315,-0.794848 z m 9.88754,-2.611646 c 0.30127,0 0.79234,0.08327 1.47319,0.24981 0.13859,0.03028 0.25307,0.04542 0.34345,0.04542 0.10243,0 0.30126,-0.06813 0.5965,-0.204391 0.13859,-0.06813 0.25608,-0.102193 0.35249,-0.102193 0.27716,0 0.55733,0.223315 0.84052,0.669944 0.22897,0.355789 0.41575,0.745644 0.56036,1.169563 0.14461,0.423919 0.21691,0.791063 0.21691,1.101432 0,0.302799 -0.0844,0.556394 -0.25306,0.760783 -0.16871,0.19682 -0.3796,0.29523 -0.63267,0.29523 -0.21088,0 -0.40068,-0.06435 -0.56939,-0.193034 -0.16268,-0.12869 -0.42779,-0.412564 -0.79534,-0.851623 -0.38562,-0.46934 -0.70496,-0.70401 -0.95802,-0.70401 -0.16871,0 -0.31633,0.07948 -0.44286,0.238456 -0.12051,0.151399 -0.18076,0.333079 -0.18076,0.545038 0,0.370929 0.28319,0.719149 0.84956,1.044658 1.01828,0.575319 1.79856,1.203628 2.34085,1.884927 0.45792,0.575319 0.68688,1.279327 0.68688,2.112025 0,1.052228 -0.36755,1.930346 -1.10264,2.634355 -0.63266,0.613168 -1.40691,0.919752 -2.32276,0.919752 -0.23498,0 -0.66277,-0.04921 -1.28338,-0.147614 -0.58446,-0.08327 -0.91284,-0.124905 -0.98514,-0.124905 -0.0783,0 -0.16871,0.01135 -0.27114,0.03406 -0.17473,0.03028 -0.30127,0.04542 -0.3796,0.04542 -0.28319,0 -0.50612,-0.09084 -0.6688,-0.272519 -0.24704,-0.280089 -0.476,-0.719148 -0.68689,-1.317177 -0.21089,-0.605599 -0.31633,-1.124143 -0.31633,-1.555632 0,-0.696439 0.21691,-1.044658 0.65073,-1.044658 0.16871,0 0.32235,0.07192 0.46094,0.215745 0.14461,0.136259 0.44286,0.507189 0.89476,1.112788 0.24704,0.333079 0.4519,0.563964 0.61458,0.692654 0.16268,0.121119 0.33741,0.181679 0.5242,0.181679 0.19883,0 0.3585,-0.06434 0.47901,-0.193035 0.12051,-0.136259 0.18076,-0.314154 0.18076,-0.533684 0,-0.340649 -0.23197,-0.651018 -0.69592,-0.931108 -0.97007,-0.598029 -1.67202,-1.214982 -2.10584,-1.850861 -0.42781,-0.635879 -0.64171,-1.370167 -0.64171,-2.202866 0,-0.900828 0.21993,-1.676751 0.65978,-2.32777 0.62663,-0.931109 1.48223,-1.396663 2.56678,-1.396663 z m 10.62865,2.975005 v 3.837982 c 0,0.454199 0.0874,0.825128 0.26211,1.112787 0.18075,0.287661 0.40971,0.431491 0.68688,0.431491 0.23499,0 0.54529,-0.13626 0.93091,-0.40878 0.0904,-0.06813 0.18076,-0.102193 0.27115,-0.102193 0.14461,0 0.27716,0.109765 0.39767,0.329295 0.12051,0.219529 0.18076,0.457984 0.18076,0.715364 0,0.469339 -0.20486,0.919753 -0.61459,1.351242 -0.85559,0.915967 -1.89195,1.373951 -3.10906,1.373951 -0.96405,0 -1.7383,-0.340649 -2.32276,-1.021948 -0.58445,-0.688868 -0.87668,-1.593481 -0.87668,-2.713839 v -5.246 c 0,-0.174109 -0.0181,-0.280088 -0.0542,-0.317939 -0.0301,-0.04542 -0.11449,-0.06813 -0.25306,-0.06813 h -0.93092 c -0.17473,0 -0.28619,-0.03406 -0.33439,-0.102192 -0.0483,-0.0757 -0.0724,-0.246028 -0.0724,-0.510975 v -0.499618 c 0.006,-0.227099 0.0753,-0.393639 0.20787,-0.499619 l 4.1394,-3.270234 c 0.10243,-0.06813 0.22896,-0.102193 0.37959,-0.102193 h 0.73207 c 0.15064,0 0.25006,0.04542 0.29826,0.136259 0.0542,0.08327 0.0813,0.253595 0.0813,0.510975 v 1.532921 c 0,0.227099 0.0271,0.374714 0.0813,0.442844 0.0603,0.06813 0.18379,0.102193 0.37056,0.102193 h 1.67202 c 0.22294,0 0.36755,0.05299 0.43383,0.15897 0.0663,0.09841 0.0994,0.314155 0.0994,0.647234 v 0.669944 c 0,0.363359 -0.0422,0.616953 -0.12652,0.760783 -0.0844,0.13626 -0.23801,0.20439 -0.46095,0.20439 h -1.63586 c -0.16871,0 -0.2832,0.03785 -0.34345,0.113554 -0.0603,0.0757 -0.0904,0.219532 -0.0904,0.431489 z"
       id="text1"
       style="font-size:19.416px;font-family:'Cooper Black';-inkscape-font-specification:'Cooper Black, Normal';fill:#000000;stroke-width:0.277864"
       aria-label="multipoost"
       sodipodi:nodetypes="sscssccscscscscscsccsscsccscscccccsscsccccsscsccscscscccscccscsscsscsscccscssccscscsccsccscscscccscssccscccsccsccscccssccsccssscsccscscssscscsscsscscccsscsscsscsscssssccscccssccsscsscccscssscscscscscsscssccsccscssssccscscsccccccccsccssccsssscsccsccscscscsccsccsscccsccscscscsccsccsscccscscscsscsccssscsscscscsccsscccscsccscsscscscssscscsscsscscccsscsscsscsscssscc" /></g></svg>
